<mxfile host="app.diagrams.net" modified="2023-06-17T13:44:25.574Z" agent="Mozilla/5.0 (Windows NT 10.0; Win64; x64) AppleWebKit/537.36 (KHTML, like Gecko) Chrome/114.0.0.0 Safari/537.36" etag="tmhxsHT-GD7uR2ZiUTnJ" version="21.4.0" type="github">
  <diagram id="lc6lOxU9mIBkTGE9_FU4" name="Page-2">
    <mxGraphModel dx="880" dy="484" grid="1" gridSize="10" guides="1" tooltips="1" connect="1" arrows="1" fold="1" page="1" pageScale="1" pageWidth="850" pageHeight="1100" math="0" shadow="0">
      <root>
        <mxCell id="0" />
        <mxCell id="1" parent="0" />
        <mxCell id="Yf1C43J4056WH9GeS0E2-2" value="Households" style="rounded=0;whiteSpace=wrap;html=1;" parent="1" vertex="1">
          <mxGeometry x="170" y="250" width="120" height="60" as="geometry" />
        </mxCell>
        <mxCell id="Yf1C43J4056WH9GeS0E2-3" value="&lt;u&gt;Email&amp;nbsp;&lt;/u&gt;" style="ellipse;whiteSpace=wrap;html=1;" parent="1" vertex="1">
          <mxGeometry x="120" y="207.5" width="60" height="32.5" as="geometry" />
        </mxCell>
        <mxCell id="Yf1C43J4056WH9GeS0E2-4" value="Squarefoot" style="ellipse;whiteSpace=wrap;html=1;" parent="1" vertex="1">
          <mxGeometry x="280" y="210" width="80" height="40" as="geometry" />
        </mxCell>
        <mxCell id="Yf1C43J4056WH9GeS0E2-7" value="Postal Code" style="ellipse;whiteSpace=wrap;html=1;" parent="1" vertex="1">
          <mxGeometry x="90" y="160" width="100" height="30" as="geometry" />
        </mxCell>
        <mxCell id="Yf1C43J4056WH9GeS0E2-32" style="rounded=0;orthogonalLoop=1;jettySize=auto;html=1;exitX=0.5;exitY=1;exitDx=0;exitDy=0;" parent="1" edge="1">
          <mxGeometry relative="1" as="geometry">
            <mxPoint x="180" y="90" as="sourcePoint" />
            <mxPoint x="180" y="90" as="targetPoint" />
          </mxGeometry>
        </mxCell>
        <mxCell id="Yf1C43J4056WH9GeS0E2-46" value="" style="endArrow=none;html=1;rounded=0;curved=1;exitX=0.333;exitY=0.017;exitDx=0;exitDy=0;exitPerimeter=0;" parent="1" source="Yf1C43J4056WH9GeS0E2-2" target="Yf1C43J4056WH9GeS0E2-3" edge="1">
          <mxGeometry width="50" height="50" relative="1" as="geometry">
            <mxPoint x="210" y="240" as="sourcePoint" />
            <mxPoint x="190" y="190" as="targetPoint" />
          </mxGeometry>
        </mxCell>
        <mxCell id="Yf1C43J4056WH9GeS0E2-47" value="" style="endArrow=none;html=1;rounded=0;curved=1;entryX=0.3;entryY=0.988;entryDx=0;entryDy=0;entryPerimeter=0;" parent="1" source="Yf1C43J4056WH9GeS0E2-2" target="Yf1C43J4056WH9GeS0E2-4" edge="1">
          <mxGeometry width="50" height="50" relative="1" as="geometry">
            <mxPoint x="190" y="160" as="sourcePoint" />
            <mxPoint x="240" y="110" as="targetPoint" />
          </mxGeometry>
        </mxCell>
        <mxCell id="Yf1C43J4056WH9GeS0E2-73" value="" style="edgeStyle=orthogonalEdgeStyle;curved=1;rounded=0;orthogonalLoop=1;jettySize=auto;html=1;" parent="1" source="Yf1C43J4056WH9GeS0E2-67" target="Yf1C43J4056WH9GeS0E2-72" edge="1">
          <mxGeometry relative="1" as="geometry" />
        </mxCell>
        <mxCell id="U1PIuRZT34naFTEvKPEY-31" value="" style="edgeStyle=orthogonalEdgeStyle;rounded=0;orthogonalLoop=1;jettySize=auto;html=1;" parent="1" source="Yf1C43J4056WH9GeS0E2-67" target="U1PIuRZT34naFTEvKPEY-30" edge="1">
          <mxGeometry relative="1" as="geometry" />
        </mxCell>
        <mxCell id="Yf1C43J4056WH9GeS0E2-67" value="Public Utilities" style="whiteSpace=wrap;html=1;rounded=0;" parent="1" vertex="1">
          <mxGeometry x="470" y="140" width="80" height="47.5" as="geometry" />
        </mxCell>
        <mxCell id="Yf1C43J4056WH9GeS0E2-72" value="O" style="ellipse;whiteSpace=wrap;html=1;rounded=0;" parent="1" vertex="1">
          <mxGeometry x="580" y="211.56" width="30" height="29.38" as="geometry" />
        </mxCell>
        <mxCell id="Yf1C43J4056WH9GeS0E2-74" value="steam" style="whiteSpace=wrap;html=1;align=center;" parent="1" vertex="1">
          <mxGeometry x="640" y="206.25" width="100" height="40" as="geometry" />
        </mxCell>
        <mxCell id="Yf1C43J4056WH9GeS0E2-76" value="gas" style="whiteSpace=wrap;html=1;align=center;" parent="1" vertex="1">
          <mxGeometry x="640" y="160" width="100" height="40" as="geometry" />
        </mxCell>
        <mxCell id="Yf1C43J4056WH9GeS0E2-77" value="electric&lt;span style=&quot;white-space: pre;&quot;&gt;&#x9;&lt;/span&gt;" style="whiteSpace=wrap;html=1;align=center;" parent="1" vertex="1">
          <mxGeometry x="640" y="110" width="100" height="40" as="geometry" />
        </mxCell>
        <mxCell id="Yf1C43J4056WH9GeS0E2-78" value="liquid fuel" style="whiteSpace=wrap;html=1;align=center;" parent="1" vertex="1">
          <mxGeometry x="640" y="257.5" width="100" height="40" as="geometry" />
        </mxCell>
        <mxCell id="Yf1C43J4056WH9GeS0E2-80" value="" style="endArrow=none;html=1;rounded=0;curved=1;exitX=0;exitY=0.75;exitDx=0;exitDy=0;entryX=0.733;entryY=1.104;entryDx=0;entryDy=0;entryPerimeter=0;" parent="1" source="Yf1C43J4056WH9GeS0E2-78" target="Yf1C43J4056WH9GeS0E2-72" edge="1">
          <mxGeometry width="50" height="50" relative="1" as="geometry">
            <mxPoint x="400" y="240" as="sourcePoint" />
            <mxPoint x="450" y="190" as="targetPoint" />
          </mxGeometry>
        </mxCell>
        <mxCell id="Yf1C43J4056WH9GeS0E2-81" value="" style="endArrow=none;html=1;rounded=0;curved=1;entryX=0;entryY=0.5;entryDx=0;entryDy=0;" parent="1" target="Yf1C43J4056WH9GeS0E2-74" edge="1">
          <mxGeometry width="50" height="50" relative="1" as="geometry">
            <mxPoint x="610" y="230" as="sourcePoint" />
            <mxPoint x="450" y="190" as="targetPoint" />
          </mxGeometry>
        </mxCell>
        <mxCell id="Yf1C43J4056WH9GeS0E2-82" value="" style="endArrow=none;html=1;rounded=0;curved=1;exitX=0;exitY=0.5;exitDx=0;exitDy=0;entryX=1;entryY=0;entryDx=0;entryDy=0;" parent="1" source="Yf1C43J4056WH9GeS0E2-76" target="Yf1C43J4056WH9GeS0E2-72" edge="1">
          <mxGeometry width="50" height="50" relative="1" as="geometry">
            <mxPoint x="400" y="240" as="sourcePoint" />
            <mxPoint x="450" y="190" as="targetPoint" />
          </mxGeometry>
        </mxCell>
        <mxCell id="Yf1C43J4056WH9GeS0E2-83" value="" style="endArrow=none;html=1;rounded=0;curved=1;entryX=0;entryY=0.5;entryDx=0;entryDy=0;" parent="1" target="Yf1C43J4056WH9GeS0E2-77" edge="1">
          <mxGeometry width="50" height="50" relative="1" as="geometry">
            <mxPoint x="600" y="210" as="sourcePoint" />
            <mxPoint x="450" y="190" as="targetPoint" />
          </mxGeometry>
        </mxCell>
        <mxCell id="Yf1C43J4056WH9GeS0E2-98" value="Thermostat" style="ellipse;whiteSpace=wrap;html=1;align=center;" parent="1" vertex="1">
          <mxGeometry x="80" y="240" width="70" height="40" as="geometry" />
        </mxCell>
        <mxCell id="Yf1C43J4056WH9GeS0E2-101" value="" style="endArrow=none;html=1;rounded=0;curved=1;exitX=1;exitY=0.5;exitDx=0;exitDy=0;entryX=0;entryY=0.5;entryDx=0;entryDy=0;" parent="1" source="Yf1C43J4056WH9GeS0E2-98" target="Yf1C43J4056WH9GeS0E2-2" edge="1">
          <mxGeometry width="50" height="50" relative="1" as="geometry">
            <mxPoint x="400" y="240" as="sourcePoint" />
            <mxPoint x="450" y="190" as="targetPoint" />
          </mxGeometry>
        </mxCell>
        <mxCell id="Yf1C43J4056WH9GeS0E2-106" value="" style="endArrow=none;html=1;rounded=0;curved=1;exitX=1;exitY=0.5;exitDx=0;exitDy=0;entryX=0;entryY=0;entryDx=0;entryDy=0;" parent="1" source="U1PIuRZT34naFTEvKPEY-22" target="3-MUx5zWKpof0NCC-61K-75" edge="1">
          <mxGeometry width="50" height="50" relative="1" as="geometry">
            <mxPoint x="410.7591907128883" y="292.1937494746069" as="sourcePoint" />
            <mxPoint x="470" y="330" as="targetPoint" />
          </mxGeometry>
        </mxCell>
        <mxCell id="3-MUx5zWKpof0NCC-61K-2" value="Air handlers" style="rounded=0;whiteSpace=wrap;html=1;" parent="1" vertex="1">
          <mxGeometry x="50" y="600" width="120" height="60" as="geometry" />
        </mxCell>
        <mxCell id="3-MUx5zWKpof0NCC-61K-3" value="Water heaters" style="rounded=0;whiteSpace=wrap;html=1;" parent="1" vertex="1">
          <mxGeometry x="355" y="600" width="120" height="60" as="geometry" />
        </mxCell>
        <mxCell id="3-MUx5zWKpof0NCC-61K-6" value="BTU" style="ellipse;whiteSpace=wrap;html=1;align=center;" parent="1" vertex="1">
          <mxGeometry x="30" y="490" width="100" height="40" as="geometry" />
        </mxCell>
        <mxCell id="3-MUx5zWKpof0NCC-61K-7" value="&lt;span style=&quot;border-bottom: 1px dotted&quot;&gt;id&lt;br&gt;&lt;/span&gt;" style="ellipse;whiteSpace=wrap;html=1;align=center;" parent="1" vertex="1">
          <mxGeometry x="310" y="490" width="100" height="40" as="geometry" />
        </mxCell>
        <mxCell id="3-MUx5zWKpof0NCC-61K-8" value="RPM" style="ellipse;whiteSpace=wrap;html=1;align=center;" parent="1" vertex="1">
          <mxGeometry x="185" y="650" width="90" height="30" as="geometry" />
        </mxCell>
        <mxCell id="3-MUx5zWKpof0NCC-61K-9" value="" style="endArrow=none;html=1;rounded=0;exitX=1;exitY=0.5;exitDx=0;exitDy=0;entryX=0;entryY=0.675;entryDx=0;entryDy=0;entryPerimeter=0;" parent="1" target="3-MUx5zWKpof0NCC-61K-7" edge="1">
          <mxGeometry width="50" height="50" relative="1" as="geometry">
            <mxPoint x="280" y="520" as="sourcePoint" />
            <mxPoint x="380" y="560" as="targetPoint" />
          </mxGeometry>
        </mxCell>
        <mxCell id="3-MUx5zWKpof0NCC-61K-10" value="" style="endArrow=none;html=1;rounded=0;exitX=1;exitY=0.5;exitDx=0;exitDy=0;entryX=0;entryY=0.5;entryDx=0;entryDy=0;" parent="1" source="3-MUx5zWKpof0NCC-61K-6" edge="1">
          <mxGeometry width="50" height="50" relative="1" as="geometry">
            <mxPoint x="330" y="610" as="sourcePoint" />
            <mxPoint x="160" y="520" as="targetPoint" />
          </mxGeometry>
        </mxCell>
        <mxCell id="3-MUx5zWKpof0NCC-61K-11" value="" style="endArrow=none;html=1;rounded=0;entryX=0.5;entryY=1;entryDx=0;entryDy=0;" parent="1" source="3-MUx5zWKpof0NCC-61K-3" edge="1">
          <mxGeometry width="50" height="50" relative="1" as="geometry">
            <mxPoint x="330" y="610" as="sourcePoint" />
            <mxPoint x="220" y="550" as="targetPoint" />
          </mxGeometry>
        </mxCell>
        <mxCell id="3-MUx5zWKpof0NCC-61K-12" value="" style="endArrow=none;html=1;rounded=0;entryX=0.45;entryY=1.033;entryDx=0;entryDy=0;entryPerimeter=0;" parent="1" source="3-MUx5zWKpof0NCC-61K-2" edge="1">
          <mxGeometry width="50" height="50" relative="1" as="geometry">
            <mxPoint x="330" y="610" as="sourcePoint" />
            <mxPoint x="214" y="551.98" as="targetPoint" />
          </mxGeometry>
        </mxCell>
        <mxCell id="3-MUx5zWKpof0NCC-61K-13" value="Air conditioner" style="whiteSpace=wrap;html=1;align=center;" parent="1" vertex="1">
          <mxGeometry x="15" y="790" width="70" height="30" as="geometry" />
        </mxCell>
        <mxCell id="3-MUx5zWKpof0NCC-61K-14" value="Appliance" style="shape=ext;margin=3;double=1;whiteSpace=wrap;html=1;align=center;" parent="1" vertex="1">
          <mxGeometry x="160" y="480" width="130" height="40" as="geometry" />
        </mxCell>
        <mxCell id="3-MUx5zWKpof0NCC-61K-15" value="Heater" style="whiteSpace=wrap;html=1;align=center;" parent="1" vertex="1">
          <mxGeometry x="140" y="795" width="60" height="20" as="geometry" />
        </mxCell>
        <mxCell id="3-MUx5zWKpof0NCC-61K-16" value="Heat Pump" style="whiteSpace=wrap;html=1;align=center;" parent="1" vertex="1">
          <mxGeometry x="245" y="790" width="70" height="30" as="geometry" />
        </mxCell>
        <mxCell id="3-MUx5zWKpof0NCC-61K-17" value="EER" style="ellipse;whiteSpace=wrap;html=1;align=center;" parent="1" vertex="1">
          <mxGeometry y="860" width="80" height="30" as="geometry" />
        </mxCell>
        <mxCell id="3-MUx5zWKpof0NCC-61K-19" value="SEER" style="ellipse;whiteSpace=wrap;html=1;align=center;" parent="1" vertex="1">
          <mxGeometry x="210" y="860" width="90" height="40" as="geometry" />
        </mxCell>
        <mxCell id="3-MUx5zWKpof0NCC-61K-25" value="d" style="ellipse;whiteSpace=wrap;html=1;aspect=fixed;" parent="1" vertex="1">
          <mxGeometry x="200" y="540" width="40" height="40" as="geometry" />
        </mxCell>
        <mxCell id="3-MUx5zWKpof0NCC-61K-26" value="" style="endArrow=none;html=1;rounded=0;entryX=0.5;entryY=1;entryDx=0;entryDy=0;" parent="1" source="3-MUx5zWKpof0NCC-61K-25" target="3-MUx5zWKpof0NCC-61K-14" edge="1">
          <mxGeometry width="50" height="50" relative="1" as="geometry">
            <mxPoint x="330" y="720" as="sourcePoint" />
            <mxPoint x="380" y="670" as="targetPoint" />
          </mxGeometry>
        </mxCell>
        <mxCell id="3-MUx5zWKpof0NCC-61K-27" value="Manufacturer" style="ellipse;whiteSpace=wrap;html=1;align=center;" parent="1" vertex="1">
          <mxGeometry x="50" y="440" width="100" height="40" as="geometry" />
        </mxCell>
        <mxCell id="3-MUx5zWKpof0NCC-61K-28" value="Model name" style="ellipse;whiteSpace=wrap;html=1;align=center;" parent="1" vertex="1">
          <mxGeometry x="315" y="430" width="100" height="40" as="geometry" />
        </mxCell>
        <mxCell id="3-MUx5zWKpof0NCC-61K-29" value="" style="endArrow=none;html=1;rounded=0;exitX=1;exitY=0;exitDx=0;exitDy=0;entryX=0;entryY=1;entryDx=0;entryDy=0;" parent="1" source="3-MUx5zWKpof0NCC-61K-14" target="3-MUx5zWKpof0NCC-61K-28" edge="1">
          <mxGeometry width="50" height="50" relative="1" as="geometry">
            <mxPoint x="330" y="520" as="sourcePoint" />
            <mxPoint x="380" y="470" as="targetPoint" />
          </mxGeometry>
        </mxCell>
        <mxCell id="3-MUx5zWKpof0NCC-61K-30" value="" style="endArrow=none;html=1;rounded=0;entryX=0;entryY=0.25;entryDx=0;entryDy=0;" parent="1" source="3-MUx5zWKpof0NCC-61K-27" target="3-MUx5zWKpof0NCC-61K-14" edge="1">
          <mxGeometry width="50" height="50" relative="1" as="geometry">
            <mxPoint x="330" y="520" as="sourcePoint" />
            <mxPoint x="380" y="470" as="targetPoint" />
          </mxGeometry>
        </mxCell>
        <mxCell id="3-MUx5zWKpof0NCC-61K-32" value="Energy Source" style="ellipse;shape=doubleEllipse;margin=3;whiteSpace=wrap;html=1;align=center;" parent="1" vertex="1">
          <mxGeometry x="105" y="870" width="90" height="30" as="geometry" />
        </mxCell>
        <mxCell id="3-MUx5zWKpof0NCC-61K-33" value="HSPF" style="ellipse;whiteSpace=wrap;html=1;align=center;" parent="1" vertex="1">
          <mxGeometry x="325" y="870" width="100" height="40" as="geometry" />
        </mxCell>
        <mxCell id="3-MUx5zWKpof0NCC-61K-34" value="" style="endArrow=none;html=1;rounded=0;entryX=0.6;entryY=1.025;entryDx=0;entryDy=0;entryPerimeter=0;exitX=0;exitY=0;exitDx=0;exitDy=0;" parent="1" source="3-MUx5zWKpof0NCC-61K-33" target="3-MUx5zWKpof0NCC-61K-16" edge="1">
          <mxGeometry width="50" height="50" relative="1" as="geometry">
            <mxPoint x="330" y="820" as="sourcePoint" />
            <mxPoint x="380" y="770" as="targetPoint" />
          </mxGeometry>
        </mxCell>
        <mxCell id="3-MUx5zWKpof0NCC-61K-35" value="" style="endArrow=none;html=1;rounded=0;entryX=0.38;entryY=0.975;entryDx=0;entryDy=0;entryPerimeter=0;exitX=0.5;exitY=0;exitDx=0;exitDy=0;" parent="1" source="3-MUx5zWKpof0NCC-61K-19" target="3-MUx5zWKpof0NCC-61K-16" edge="1">
          <mxGeometry width="50" height="50" relative="1" as="geometry">
            <mxPoint x="330" y="820" as="sourcePoint" />
            <mxPoint x="380" y="770" as="targetPoint" />
          </mxGeometry>
        </mxCell>
        <mxCell id="3-MUx5zWKpof0NCC-61K-36" value="" style="endArrow=none;html=1;rounded=0;entryX=0.5;entryY=1;entryDx=0;entryDy=0;exitX=0.5;exitY=0;exitDx=0;exitDy=0;" parent="1" source="3-MUx5zWKpof0NCC-61K-32" target="3-MUx5zWKpof0NCC-61K-15" edge="1">
          <mxGeometry width="50" height="50" relative="1" as="geometry">
            <mxPoint x="330" y="820" as="sourcePoint" />
            <mxPoint x="380" y="770" as="targetPoint" />
          </mxGeometry>
        </mxCell>
        <mxCell id="3-MUx5zWKpof0NCC-61K-37" value="" style="endArrow=none;html=1;rounded=0;exitX=0.5;exitY=0;exitDx=0;exitDy=0;entryX=0.5;entryY=1;entryDx=0;entryDy=0;" parent="1" source="3-MUx5zWKpof0NCC-61K-17" target="3-MUx5zWKpof0NCC-61K-13" edge="1">
          <mxGeometry width="50" height="50" relative="1" as="geometry">
            <mxPoint x="330" y="820" as="sourcePoint" />
            <mxPoint x="380" y="770" as="targetPoint" />
          </mxGeometry>
        </mxCell>
        <mxCell id="3-MUx5zWKpof0NCC-61K-42" value="" style="endArrow=none;html=1;rounded=0;entryX=0.417;entryY=1;entryDx=0;entryDy=0;entryPerimeter=0;exitX=0.5;exitY=0;exitDx=0;exitDy=0;" parent="1" target="3-MUx5zWKpof0NCC-61K-2" edge="1">
          <mxGeometry width="50" height="50" relative="1" as="geometry">
            <mxPoint x="110" y="700" as="sourcePoint" />
            <mxPoint x="380" y="570" as="targetPoint" />
          </mxGeometry>
        </mxCell>
        <mxCell id="3-MUx5zWKpof0NCC-61K-43" value="Tank Size" style="ellipse;whiteSpace=wrap;html=1;align=center;" parent="1" vertex="1">
          <mxGeometry x="270" y="680" width="100" height="40" as="geometry" />
        </mxCell>
        <mxCell id="3-MUx5zWKpof0NCC-61K-44" value="temperature" style="ellipse;whiteSpace=wrap;html=1;align=center;" parent="1" vertex="1">
          <mxGeometry x="375" y="680" width="100" height="40" as="geometry" />
        </mxCell>
        <mxCell id="3-MUx5zWKpof0NCC-61K-46" value="Energy source" style="ellipse;shape=doubleEllipse;margin=3;whiteSpace=wrap;html=1;align=center;" parent="1" vertex="1">
          <mxGeometry x="475" y="690" width="100" height="40" as="geometry" />
        </mxCell>
        <mxCell id="3-MUx5zWKpof0NCC-61K-47" value="" style="endArrow=none;html=1;rounded=0;exitX=0.5;exitY=0;exitDx=0;exitDy=0;" parent="1" source="3-MUx5zWKpof0NCC-61K-44" target="3-MUx5zWKpof0NCC-61K-3" edge="1">
          <mxGeometry width="50" height="50" relative="1" as="geometry">
            <mxPoint x="330" y="620" as="sourcePoint" />
            <mxPoint x="380" y="570" as="targetPoint" />
          </mxGeometry>
        </mxCell>
        <mxCell id="3-MUx5zWKpof0NCC-61K-48" value="" style="endArrow=none;html=1;rounded=0;exitX=0.5;exitY=0;exitDx=0;exitDy=0;entryX=0.558;entryY=1.017;entryDx=0;entryDy=0;entryPerimeter=0;" parent="1" source="3-MUx5zWKpof0NCC-61K-43" target="3-MUx5zWKpof0NCC-61K-3" edge="1">
          <mxGeometry width="50" height="50" relative="1" as="geometry">
            <mxPoint x="330" y="620" as="sourcePoint" />
            <mxPoint x="380" y="570" as="targetPoint" />
          </mxGeometry>
        </mxCell>
        <mxCell id="3-MUx5zWKpof0NCC-61K-49" value="" style="endArrow=none;html=1;rounded=0;entryX=0.95;entryY=1;entryDx=0;entryDy=0;entryPerimeter=0;" parent="1" source="3-MUx5zWKpof0NCC-61K-46" target="3-MUx5zWKpof0NCC-61K-3" edge="1">
          <mxGeometry width="50" height="50" relative="1" as="geometry">
            <mxPoint x="330" y="620" as="sourcePoint" />
            <mxPoint x="380" y="570" as="targetPoint" />
          </mxGeometry>
        </mxCell>
        <mxCell id="3-MUx5zWKpof0NCC-61K-53" value="" style="endArrow=none;html=1;rounded=0;exitX=0.5;exitY=0;exitDx=0;exitDy=0;entryX=0.25;entryY=1;entryDx=0;entryDy=0;" parent="1" edge="1">
          <mxGeometry width="50" height="50" relative="1" as="geometry">
            <mxPoint x="435" y="380" as="sourcePoint" />
            <mxPoint x="495" y="350" as="targetPoint" />
            <Array as="points">
              <mxPoint x="490" y="360" />
            </Array>
          </mxGeometry>
        </mxCell>
        <mxCell id="3-MUx5zWKpof0NCC-61K-54" value="" style="endArrow=none;html=1;rounded=0;entryX=1;entryY=1;entryDx=0;entryDy=0;exitX=1;exitY=0.5;exitDx=0;exitDy=0;" parent="1" source="U1PIuRZT34naFTEvKPEY-39" edge="1">
          <mxGeometry width="50" height="50" relative="1" as="geometry">
            <mxPoint x="630" y="360" as="sourcePoint" />
            <mxPoint x="680" y="370" as="targetPoint" />
          </mxGeometry>
        </mxCell>
        <mxCell id="3-MUx5zWKpof0NCC-61K-55" value="" style="endArrow=none;html=1;rounded=0;entryX=0.75;entryY=1;entryDx=0;entryDy=0;" parent="1" edge="1">
          <mxGeometry width="50" height="50" relative="1" as="geometry">
            <mxPoint x="530" y="379" as="sourcePoint" />
            <mxPoint x="545" y="350" as="targetPoint" />
          </mxGeometry>
        </mxCell>
        <mxCell id="3-MUx5zWKpof0NCC-61K-59" value="" style="endArrow=none;html=1;rounded=0;exitX=0.5;exitY=0;exitDx=0;exitDy=0;" parent="1" source="Yf1C43J4056WH9GeS0E2-2" target="Yf1C43J4056WH9GeS0E2-7" edge="1">
          <mxGeometry width="50" height="50" relative="1" as="geometry">
            <mxPoint x="240" y="240" as="sourcePoint" />
            <mxPoint x="380" y="170" as="targetPoint" />
          </mxGeometry>
        </mxCell>
        <mxCell id="3-MUx5zWKpof0NCC-61K-60" value="Home type" style="ellipse;shape=doubleEllipse;margin=3;whiteSpace=wrap;html=1;align=center;" parent="1" vertex="1">
          <mxGeometry y="280" width="100" height="40" as="geometry" />
        </mxCell>
        <mxCell id="3-MUx5zWKpof0NCC-61K-61" value="" style="endArrow=none;html=1;rounded=0;exitX=0.98;exitY=0.35;exitDx=0;exitDy=0;exitPerimeter=0;entryX=0;entryY=0.75;entryDx=0;entryDy=0;" parent="1" source="3-MUx5zWKpof0NCC-61K-60" target="Yf1C43J4056WH9GeS0E2-2" edge="1">
          <mxGeometry width="50" height="50" relative="1" as="geometry">
            <mxPoint x="330" y="320" as="sourcePoint" />
            <mxPoint x="380" y="270" as="targetPoint" />
          </mxGeometry>
        </mxCell>
        <mxCell id="U1PIuRZT34naFTEvKPEY-36" value="" style="edgeStyle=orthogonalEdgeStyle;rounded=0;orthogonalLoop=1;jettySize=auto;html=1;" parent="1" target="U1PIuRZT34naFTEvKPEY-35" edge="1">
          <mxGeometry relative="1" as="geometry">
            <mxPoint x="660" y="450" as="sourcePoint" />
          </mxGeometry>
        </mxCell>
        <mxCell id="3-MUx5zWKpof0NCC-61K-63" value="Monthly KWH" style="ellipse;whiteSpace=wrap;html=1;align=center;" parent="1" vertex="1">
          <mxGeometry x="385" y="380" width="100" height="40" as="geometry" />
        </mxCell>
        <mxCell id="3-MUx5zWKpof0NCC-61K-64" value="Battery storage" style="ellipse;whiteSpace=wrap;html=1;align=center;" parent="1" vertex="1">
          <mxGeometry x="500" y="380" width="100" height="40" as="geometry" />
        </mxCell>
        <mxCell id="3-MUx5zWKpof0NCC-61K-73" value="" style="endArrow=none;html=1;rounded=0;entryX=1.033;entryY=0.367;entryDx=0;entryDy=0;entryPerimeter=0;exitX=0.267;exitY=0.133;exitDx=0;exitDy=0;exitPerimeter=0;" parent="1" source="3-MUx5zWKpof0NCC-61K-8" target="3-MUx5zWKpof0NCC-61K-2" edge="1">
          <mxGeometry width="50" height="50" relative="1" as="geometry">
            <mxPoint x="200" y="660" as="sourcePoint" />
            <mxPoint x="380" y="570" as="targetPoint" />
          </mxGeometry>
        </mxCell>
        <mxCell id="3-MUx5zWKpof0NCC-61K-74" value="&lt;span style=&quot;border-bottom: 1px dotted&quot;&gt;id&lt;/span&gt;" style="ellipse;whiteSpace=wrap;html=1;align=center;" parent="1" vertex="1">
          <mxGeometry x="515" y="435" width="60" height="30" as="geometry" />
        </mxCell>
        <mxCell id="3-MUx5zWKpof0NCC-61K-75" value="OFF the GRID" style="shape=ext;margin=3;double=1;whiteSpace=wrap;html=1;align=center;" parent="1" vertex="1">
          <mxGeometry x="485" y="320" width="100" height="40" as="geometry" />
        </mxCell>
        <mxCell id="3-MUx5zWKpof0NCC-61K-76" value="" style="endArrow=none;html=1;rounded=0;exitX=1;exitY=0.5;exitDx=0;exitDy=0;entryX=0;entryY=0.75;entryDx=0;entryDy=0;" parent="1" source="3-MUx5zWKpof0NCC-61K-74" target="U1PIuRZT34naFTEvKPEY-37" edge="1">
          <mxGeometry width="50" height="50" relative="1" as="geometry">
            <mxPoint x="460" y="420" as="sourcePoint" />
            <mxPoint x="510" y="370" as="targetPoint" />
          </mxGeometry>
        </mxCell>
        <mxCell id="3-MUx5zWKpof0NCC-61K-85" value="" style="endArrow=none;html=1;rounded=0;exitX=0.5;exitY=0;exitDx=0;exitDy=0;entryX=0.5;entryY=1;entryDx=0;entryDy=0;" parent="1" source="U1PIuRZT34naFTEvKPEY-12" target="Yf1C43J4056WH9GeS0E2-2" edge="1">
          <mxGeometry width="50" height="50" relative="1" as="geometry">
            <mxPoint x="225" y="340" as="sourcePoint" />
            <mxPoint x="510" y="430" as="targetPoint" />
          </mxGeometry>
        </mxCell>
        <mxCell id="3-MUx5zWKpof0NCC-61K-87" value="MENU" style="rounded=0;whiteSpace=wrap;html=1;" parent="1" vertex="1">
          <mxGeometry x="220" y="30" width="70" height="40" as="geometry" />
        </mxCell>
        <mxCell id="3-MUx5zWKpof0NCC-61K-88" value="Enter Household information" style="shape=rhombus;perimeter=rhombusPerimeter;whiteSpace=wrap;html=1;align=center;" parent="1" vertex="1">
          <mxGeometry x="190" y="110" width="120" height="60" as="geometry" />
        </mxCell>
        <mxCell id="3-MUx5zWKpof0NCC-61K-95" value="" style="endArrow=none;html=1;rounded=0;entryX=0.675;entryY=-0.083;entryDx=0;entryDy=0;entryPerimeter=0;" parent="1" target="Yf1C43J4056WH9GeS0E2-2" edge="1">
          <mxGeometry relative="1" as="geometry">
            <mxPoint x="250" y="170" as="sourcePoint" />
            <mxPoint x="570" y="150" as="targetPoint" />
          </mxGeometry>
        </mxCell>
        <mxCell id="3-MUx5zWKpof0NCC-61K-96" value="1" style="resizable=0;html=1;whiteSpace=wrap;align=right;verticalAlign=bottom;" parent="3-MUx5zWKpof0NCC-61K-95" connectable="0" vertex="1">
          <mxGeometry x="1" relative="1" as="geometry" />
        </mxCell>
        <mxCell id="3-MUx5zWKpof0NCC-61K-97" value="" style="endArrow=none;html=1;rounded=0;exitX=0.5;exitY=0;exitDx=0;exitDy=0;entryX=0.571;entryY=1;entryDx=0;entryDy=0;entryPerimeter=0;" parent="1" source="3-MUx5zWKpof0NCC-61K-88" target="3-MUx5zWKpof0NCC-61K-87" edge="1">
          <mxGeometry relative="1" as="geometry">
            <mxPoint x="410" y="150" as="sourcePoint" />
            <mxPoint x="250" y="80" as="targetPoint" />
          </mxGeometry>
        </mxCell>
        <mxCell id="3-MUx5zWKpof0NCC-61K-98" value="1" style="resizable=0;html=1;whiteSpace=wrap;align=right;verticalAlign=bottom;" parent="3-MUx5zWKpof0NCC-61K-97" connectable="0" vertex="1">
          <mxGeometry x="1" relative="1" as="geometry" />
        </mxCell>
        <mxCell id="U1PIuRZT34naFTEvKPEY-1" value="appliance type" style="ellipse;whiteSpace=wrap;html=1;align=center;" parent="1" vertex="1">
          <mxGeometry x="60" y="350" width="100" height="40" as="geometry" />
        </mxCell>
        <mxCell id="U1PIuRZT34naFTEvKPEY-2" value="" style="endArrow=none;html=1;rounded=0;entryX=0;entryY=0.5;entryDx=0;entryDy=0;" parent="1" source="U1PIuRZT34naFTEvKPEY-1" edge="1">
          <mxGeometry width="50" height="50" relative="1" as="geometry">
            <mxPoint x="400" y="450" as="sourcePoint" />
            <mxPoint x="185" y="380" as="targetPoint" />
          </mxGeometry>
        </mxCell>
        <mxCell id="U1PIuRZT34naFTEvKPEY-7" style="edgeStyle=orthogonalEdgeStyle;rounded=0;orthogonalLoop=1;jettySize=auto;html=1;exitX=0.5;exitY=1;exitDx=0;exitDy=0;entryX=0.5;entryY=0;entryDx=0;entryDy=0;" parent="1" source="U1PIuRZT34naFTEvKPEY-3" target="U1PIuRZT34naFTEvKPEY-5" edge="1">
          <mxGeometry relative="1" as="geometry" />
        </mxCell>
        <mxCell id="U1PIuRZT34naFTEvKPEY-3" value="select heat/colling method" style="rhombus;whiteSpace=wrap;html=1;" parent="1" vertex="1">
          <mxGeometry x="90" y="700" width="65" height="50" as="geometry" />
        </mxCell>
        <mxCell id="U1PIuRZT34naFTEvKPEY-5" value="d" style="ellipse;whiteSpace=wrap;html=1;aspect=fixed;" parent="1" vertex="1">
          <mxGeometry x="105" y="757" width="33" height="33" as="geometry" />
        </mxCell>
        <mxCell id="U1PIuRZT34naFTEvKPEY-6" value="" style="endArrow=none;html=1;rounded=0;entryX=0.5;entryY=0;entryDx=0;entryDy=0;exitX=1;exitY=0;exitDx=0;exitDy=0;" parent="1" source="U1PIuRZT34naFTEvKPEY-5" target="3-MUx5zWKpof0NCC-61K-16" edge="1">
          <mxGeometry width="50" height="50" relative="1" as="geometry">
            <mxPoint x="400" y="660" as="sourcePoint" />
            <mxPoint x="450" y="610" as="targetPoint" />
          </mxGeometry>
        </mxCell>
        <mxCell id="U1PIuRZT34naFTEvKPEY-8" value="" style="endArrow=none;html=1;rounded=0;exitX=1;exitY=0;exitDx=0;exitDy=0;" parent="1" source="U1PIuRZT34naFTEvKPEY-5" edge="1">
          <mxGeometry width="50" height="50" relative="1" as="geometry">
            <mxPoint x="400" y="660" as="sourcePoint" />
            <mxPoint x="170" y="790" as="targetPoint" />
          </mxGeometry>
        </mxCell>
        <mxCell id="U1PIuRZT34naFTEvKPEY-9" value="" style="endArrow=none;html=1;rounded=0;exitX=0.75;exitY=0;exitDx=0;exitDy=0;" parent="1" source="3-MUx5zWKpof0NCC-61K-13" edge="1">
          <mxGeometry width="50" height="50" relative="1" as="geometry">
            <mxPoint x="400" y="660" as="sourcePoint" />
            <mxPoint x="110" y="770" as="targetPoint" />
          </mxGeometry>
        </mxCell>
        <mxCell id="U1PIuRZT34naFTEvKPEY-10" value="" style="shape=link;html=1;rounded=0;entryX=0.5;entryY=0;entryDx=0;entryDy=0;exitX=0.5;exitY=1;exitDx=0;exitDy=0;exitPerimeter=0;" parent="1" source="U1PIuRZT34naFTEvKPEY-12" target="3-MUx5zWKpof0NCC-61K-14" edge="1">
          <mxGeometry relative="1" as="geometry">
            <mxPoint x="220" y="420" as="sourcePoint" />
            <mxPoint x="500" y="430" as="targetPoint" />
          </mxGeometry>
        </mxCell>
        <mxCell id="U1PIuRZT34naFTEvKPEY-11" value="N" style="resizable=0;html=1;whiteSpace=wrap;align=right;verticalAlign=bottom;" parent="U1PIuRZT34naFTEvKPEY-10" connectable="0" vertex="1">
          <mxGeometry x="1" relative="1" as="geometry" />
        </mxCell>
        <mxCell id="U1PIuRZT34naFTEvKPEY-12" value="add appliance" style="shape=rhombus;double=1;perimeter=rhombusPerimeter;whiteSpace=wrap;html=1;align=center;" parent="1" vertex="1">
          <mxGeometry x="170" y="350" width="120" height="60" as="geometry" />
        </mxCell>
        <mxCell id="U1PIuRZT34naFTEvKPEY-14" value="uses" style="shape=rhombus;perimeter=rhombusPerimeter;whiteSpace=wrap;html=1;align=center;" parent="1" vertex="1">
          <mxGeometry x="355" y="180" width="120" height="60" as="geometry" />
        </mxCell>
        <mxCell id="U1PIuRZT34naFTEvKPEY-19" value="" style="endArrow=none;html=1;rounded=0;exitX=1;exitY=0;exitDx=0;exitDy=0;entryX=0;entryY=0.75;entryDx=0;entryDy=0;" parent="1" source="U1PIuRZT34naFTEvKPEY-14" target="Yf1C43J4056WH9GeS0E2-67" edge="1">
          <mxGeometry relative="1" as="geometry">
            <mxPoint x="340" y="330" as="sourcePoint" />
            <mxPoint x="500" y="330" as="targetPoint" />
          </mxGeometry>
        </mxCell>
        <mxCell id="U1PIuRZT34naFTEvKPEY-20" value="M" style="resizable=0;html=1;whiteSpace=wrap;align=left;verticalAlign=bottom;" parent="U1PIuRZT34naFTEvKPEY-19" connectable="0" vertex="1">
          <mxGeometry x="-1" relative="1" as="geometry" />
        </mxCell>
        <mxCell id="U1PIuRZT34naFTEvKPEY-21" value="N" style="resizable=0;html=1;whiteSpace=wrap;align=right;verticalAlign=bottom;" parent="U1PIuRZT34naFTEvKPEY-19" connectable="0" vertex="1">
          <mxGeometry x="1" relative="1" as="geometry" />
        </mxCell>
        <mxCell id="U1PIuRZT34naFTEvKPEY-22" value="d" style="ellipse;whiteSpace=wrap;html=1;aspect=fixed;" parent="1" vertex="1">
          <mxGeometry x="345" y="257.5" width="45" height="45" as="geometry" />
        </mxCell>
        <mxCell id="U1PIuRZT34naFTEvKPEY-23" value="" style="endArrow=none;html=1;rounded=0;exitX=1.025;exitY=0.383;exitDx=0;exitDy=0;exitPerimeter=0;entryX=0;entryY=0.5;entryDx=0;entryDy=0;" parent="1" source="Yf1C43J4056WH9GeS0E2-2" target="U1PIuRZT34naFTEvKPEY-22" edge="1">
          <mxGeometry width="50" height="50" relative="1" as="geometry">
            <mxPoint x="400" y="360" as="sourcePoint" />
            <mxPoint x="450" y="310" as="targetPoint" />
          </mxGeometry>
        </mxCell>
        <mxCell id="U1PIuRZT34naFTEvKPEY-24" value="" style="endArrow=none;html=1;rounded=0;entryX=0.333;entryY=0.9;entryDx=0;entryDy=0;entryPerimeter=0;exitX=0.911;exitY=0.011;exitDx=0;exitDy=0;exitPerimeter=0;" parent="1" source="U1PIuRZT34naFTEvKPEY-22" target="U1PIuRZT34naFTEvKPEY-14" edge="1">
          <mxGeometry width="50" height="50" relative="1" as="geometry">
            <mxPoint x="400" y="360" as="sourcePoint" />
            <mxPoint x="450" y="310" as="targetPoint" />
          </mxGeometry>
        </mxCell>
        <mxCell id="U1PIuRZT34naFTEvKPEY-28" value="" style="shape=link;html=1;rounded=0;entryX=0.5;entryY=0;entryDx=0;entryDy=0;exitX=0.5;exitY=1;exitDx=0;exitDy=0;" parent="1" edge="1">
          <mxGeometry relative="1" as="geometry">
            <mxPoint x="660" y="380" as="sourcePoint" />
            <mxPoint x="660" y="410" as="targetPoint" />
          </mxGeometry>
        </mxCell>
        <mxCell id="U1PIuRZT34naFTEvKPEY-29" value="N" style="resizable=0;html=1;whiteSpace=wrap;align=right;verticalAlign=bottom;" parent="U1PIuRZT34naFTEvKPEY-28" connectable="0" vertex="1">
          <mxGeometry x="1" relative="1" as="geometry" />
        </mxCell>
        <mxCell id="U1PIuRZT34naFTEvKPEY-30" value="has" style="rhombus;whiteSpace=wrap;html=1;rounded=0;" parent="1" vertex="1">
          <mxGeometry x="770" y="310" width="80" height="80" as="geometry" />
        </mxCell>
        <mxCell id="U1PIuRZT34naFTEvKPEY-33" value="" style="endArrow=none;html=1;rounded=0;entryX=0.5;entryY=1;entryDx=0;entryDy=0;exitX=1;exitY=0.5;exitDx=0;exitDy=0;" parent="1" target="U1PIuRZT34naFTEvKPEY-30" edge="1">
          <mxGeometry width="50" height="50" relative="1" as="geometry">
            <mxPoint x="710" y="430" as="sourcePoint" />
            <mxPoint x="450" y="310" as="targetPoint" />
          </mxGeometry>
        </mxCell>
        <mxCell id="U1PIuRZT34naFTEvKPEY-35" value="Generator type" style="ellipse;shape=doubleEllipse;margin=3;whiteSpace=wrap;html=1;align=center;" parent="1" vertex="1">
          <mxGeometry x="630" y="480" width="100" height="40" as="geometry" />
        </mxCell>
        <mxCell id="U1PIuRZT34naFTEvKPEY-37" value="Generator" style="shape=ext;margin=3;double=1;whiteSpace=wrap;html=1;align=center;fontStyle=1" parent="1" vertex="1">
          <mxGeometry x="630" y="410" width="100" height="40" as="geometry" />
        </mxCell>
        <mxCell id="U1PIuRZT34naFTEvKPEY-40" value="" style="endArrow=none;html=1;rounded=0;entryX=1;entryY=1;entryDx=0;entryDy=0;exitX=1;exitY=0.5;exitDx=0;exitDy=0;" parent="1" source="3-MUx5zWKpof0NCC-61K-75" target="U1PIuRZT34naFTEvKPEY-39" edge="1">
          <mxGeometry width="50" height="50" relative="1" as="geometry">
            <mxPoint x="585" y="340" as="sourcePoint" />
            <mxPoint x="680" y="370" as="targetPoint" />
          </mxGeometry>
        </mxCell>
        <mxCell id="U1PIuRZT34naFTEvKPEY-39" value="Has" style="shape=rhombus;double=1;perimeter=rhombusPerimeter;whiteSpace=wrap;html=1;align=center;" parent="1" vertex="1">
          <mxGeometry x="600" y="330" width="120" height="60" as="geometry" />
        </mxCell>
      </root>
    </mxGraphModel>
  </diagram>
</mxfile>
